# xmcd CD database file
# Generated: wto kwi 29 11:45:38 2003 by KSCD
# 
# Track frame offsets:
#       150
#       23110
#       42217
#       50998
#       58642
#       71824
#       88984
#       103207
#       117217
#       135667
#       148676
#       164023
#       170163
#
# Disc length: 2475 seconds
#
# Revision: 1
# Processed by: cddbd v1.4PL0 Copyright (c) Steve Scherf et al.
# Submitted via: Kscd 1.3.3
#
DISCID=cc09a90d
DTITLE=Stare Dobre Ma??e?stwo - Kino objazdowe
DYEAR=1900
DGENRE=
TTITLE0=Zielony dom
TTITLE1=Makatka ze Z?ocie?ca
TTITLE2=Deszczówka - kreskówka
TTITLE3=Stryku - Byku
TTITLE4=Przystanek na ??danie
TTITLE5=Anio?om marzn? skrzyd?a
TTITLE6=Nocne majaki
TTITLE7=Go?cie z nieba
TTITLE8=Muszyna
TTITLE9=Ju? nie jestem ich
TTITLE10=Kino objazdowe w Z?ockiem
TTITLE11=Na g?owie staj?
TTITLE12=Z mi?o?ci?
EXTD=
EXTT0=
EXTT1=
EXTT2=
EXTT3=
EXTT4=
EXTT5=
EXTT6=
EXTT7=
EXTT8=
EXTT9=
EXTT10=
EXTT11=
EXTT12=
PLAYORDER=
